<?xml version="1.0" encoding="UTF-8" standalone="no"?>
<!-- Created with Inkscape (http://www.inkscape.org/) -->

<svg
   width="202.06256mm"
   height="230.65793mm"
   viewBox="0 0 202.06256 230.65793"
   version="1.1"
   id="svg5"
   inkscape:version="1.1.1 (3bf5ae0d25, 2021-09-20)"
   sodipodi:docname="Projects Essence.svg"
   inkscape:export-filename="Projects Essence.png"
   inkscape:export-xdpi="97"
   inkscape:export-ydpi="97"
   xmlns:inkscape="http://www.inkscape.org/namespaces/inkscape"
   xmlns:sodipodi="http://sodipodi.sourceforge.net/DTD/sodipodi-0.dtd"
   xmlns="http://www.w3.org/2000/svg"
   xmlns:svg="http://www.w3.org/2000/svg">
  <sodipodi:namedview
     id="namedview7"
     pagecolor="#ffffff"
     bordercolor="#666666"
     borderopacity="1.0"
     inkscape:pageshadow="2"
     inkscape:pageopacity="0.0"
     inkscape:pagecheckerboard="0"
     inkscape:document-units="mm"
     showgrid="false"
     inkscape:zoom="0.73406285"
     inkscape:cx="477.47955"
     inkscape:cy="497.91377"
     inkscape:window-width="1920"
     inkscape:window-height="1013"
     inkscape:window-x="-9"
     inkscape:window-y="29"
     inkscape:window-maximized="1"
     inkscape:current-layer="layer1"
     fit-margin-top="30"
     lock-margins="true"
     fit-margin-left="30"
     fit-margin-right="30"
     fit-margin-bottom="30" />
  <defs
     id="defs2" />
  <g
     inkscape:label="Layer 1"
     inkscape:groupmode="layer"
     id="layer1"
     transform="translate(-3.2995088,11.916464)">
    <path
       id="rect2324"
       style="fill:#dbdbdb;fill-opacity:1;stroke:#000000;stroke-width:0;stroke-opacity:0.0449438"
       d="m 105.63627,58.471613 a 3.6043687,3.6043687 0 0 0 -3.60443,3.604432 3.6043687,3.6043687 0 0 0 1.80247,3.121773 V 170.0798 a 3.6043687,3.6043687 0 0 0 -1.80247,3.12126 3.6043687,3.6043687 0 0 0 3.60443,3.60443 3.6043687,3.6043687 0 0 0 3.60443,-3.60443 3.6043687,3.6043687 0 0 0 -1.80247,-3.12126 V 65.197818 a 3.6043687,3.6043687 0 0 0 1.80247,-3.121773 3.6043687,3.6043687 0 0 0 -3.60443,-3.604432 z" />
    <text
       xml:space="preserve"
       style="font-style:normal;font-weight:normal;font-size:10.5833px;line-height:1.25;font-family:sans-serif;text-align:center;text-anchor:middle;fill:#000045;fill-opacity:1;stroke:none;stroke-width:0.264583"
       x="105.59751"
       y="52.582699"
       id="text845"><tspan
         sodipodi:role="line"
         id="tspan843"
         style="text-align:center;text-anchor:middle;fill:#000045;fill-opacity:1;stroke-width:0.264583"
         x="105.59751"
         y="52.582699">Scope / Will</tspan></text>
    <text
       xml:space="preserve"
       style="font-style:normal;font-weight:normal;font-size:10.5833px;line-height:1.25;font-family:sans-serif;text-align:center;text-anchor:middle;fill:#000045;fill-opacity:1;stroke:none;stroke-width:0.264583"
       x="105.94115"
       y="188.5916"
       id="text1508"><tspan
         sodipodi:role="line"
         id="tspan1506"
         style="text-align:center;text-anchor:middle;fill:#000045;fill-opacity:1;stroke-width:0.264583"
         x="105.94115"
         y="188.5916">Space / Time</tspan></text>
    <path
       id="path14321"
       style="fill:#dbdbdb;fill-opacity:1;stroke:#000000;stroke-width:0;stroke-opacity:0.0449438"
       d="m 54.37118,88.069529 a 3.6043687,3.6043687 0 0 0 1.319315,4.923745 3.6043687,3.6043687 0 0 0 3.60477,-1e-4 l 90.830445,52.440996 a 3.6043687,3.6043687 0 0 0 1.80186,3.12162 3.6043687,3.6043687 0 0 0 4.92374,-1.31931 3.6043687,3.6043687 0 0 0 -1.31931,-4.92375 3.6043687,3.6043687 0 0 0 -3.60433,3.6e-4 L 61.097225,89.872088 a 3.6043687,3.6043687 0 0 0 -1.8023,-3.121871 3.6043687,3.6043687 0 0 0 -4.923745,1.319312 z" />
    <text
       xml:space="preserve"
       style="font-style:normal;font-weight:normal;font-size:10.5833px;line-height:1.25;font-family:sans-serif;text-align:center;text-anchor:middle;fill:#000045;fill-opacity:1;stroke:none;stroke-width:0.264583"
       x="-49.123611"
       y="85.232666"
       id="text14325"
       transform="rotate(-60)"><tspan
         sodipodi:role="line"
         id="tspan14323"
         style="text-align:center;text-anchor:middle;fill:#000045;fill-opacity:1;stroke-width:0.264583"
         x="-49.123611"
         y="85.232666">Talents</tspan></text>
    <text
       xml:space="preserve"
       style="font-style:normal;font-weight:normal;font-size:10.5833px;line-height:1.25;font-family:sans-serif;text-align:center;text-anchor:middle;fill:#000045;fill-opacity:1;stroke:none;stroke-width:0.264583"
       x="-48.779968"
       y="221.24158"
       id="text14329"
       transform="rotate(-60)"><tspan
         sodipodi:role="line"
         id="tspan14327"
         style="text-align:center;text-anchor:middle;fill:#000045;fill-opacity:1;stroke-width:0.264583"
         x="-48.779968"
         y="221.24158">Profits</tspan></text>
    <path
       id="path14331"
       style="fill:#dbdbdb;fill-opacity:1;stroke:#000000;stroke-width:0;stroke-opacity:0.0449438"
       d="m 156.90136,88.069526 a 3.6043687,3.6043687 0 0 0 -4.92374,-1.319312 3.6043687,3.6043687 0 0 0 -1.8023,3.121871 L 59.344872,142.31308 a 3.6043687,3.6043687 0 0 0 -3.604325,-3.5e-4 3.6043687,3.6043687 0 0 0 -1.319313,4.92374 3.6043687,3.6043687 0 0 0 4.923743,1.31932 3.6043687,3.6043687 0 0 0 1.801855,-3.12162 L 151.97728,92.993174 a 3.6043687,3.6043687 0 0 0 3.60477,1e-4 3.6043687,3.6043687 0 0 0 1.31931,-4.923748 z" />
    <text
       xml:space="preserve"
       style="font-style:normal;font-weight:normal;font-size:10.5833px;line-height:1.25;font-family:sans-serif;text-align:center;text-anchor:middle;fill:#000045;fill-opacity:1;stroke:none;stroke-width:0.264583"
       x="154.68237"
       y="-97.734718"
       id="text14335"
       transform="rotate(60)"><tspan
         sodipodi:role="line"
         id="tspan14333"
         style="text-align:center;text-anchor:middle;fill:#000045;fill-opacity:1;stroke-width:0.264583"
         x="154.68237"
         y="-97.734718">Tasks</tspan></text>
    <text
       xml:space="preserve"
       style="font-style:normal;font-weight:normal;font-size:10.5833px;line-height:1.25;font-family:sans-serif;text-align:center;text-anchor:middle;fill:#000045;fill-opacity:1;stroke:none;stroke-width:0.264583"
       x="155.02602"
       y="38.274185"
       id="text14339"
       transform="rotate(60)"><tspan
         sodipodi:role="line"
         id="tspan14337"
         style="text-align:center;text-anchor:middle;fill:#000045;fill-opacity:1;stroke-width:0.264583"
         x="155.02602"
         y="38.274185">Assets</tspan></text>
    <text
       xml:space="preserve"
       style="font-style:normal;font-weight:normal;font-size:10.5833px;line-height:1.25;font-family:sans-serif;text-align:center;text-anchor:middle;fill:#000045;fill-opacity:1;stroke:none;stroke-width:0.264583"
       x="105.59751"
       y="26.124363"
       id="text2248"><tspan
         sodipodi:role="line"
         id="tspan2246"
         style="text-align:center;text-anchor:middle;fill:#000045;fill-opacity:1;stroke-width:0.264583"
         x="105.59751"
         y="26.124363">Projects Essence</tspan></text>
  </g>
</svg>
